HIERARCHY
ROOT Model
{
	OFFSET 0 0 0
	CHANNELS 6 Xposition Yposition Zposition Zrotation Xrotation Yrotation
	JOINT Model1
	{
		OFFSET 0 -2.25479 2.99383
		CHANNELS 3 Zrotation Xrotation Yrotation
		JOINT Model2
		{
			OFFSET 12.111 0 0
			CHANNELS 3 Zrotation Xrotation Yrotation
			JOINT Model3
			{
				OFFSET 11.5502 0 0
				CHANNELS 3 Zrotation Xrotation Yrotation
				JOINT Model4
				{
					OFFSET 11.781 0 0
					CHANNELS 3 Zrotation Xrotation Yrotation
					JOINT Model5
					{
						OFFSET 20.0601 0 0
						CHANNELS 3 Zrotation Xrotation Yrotation
						JOINT Model6
						{
							OFFSET 11.1962 0 0
							CHANNELS 3 Zrotation Xrotation Yrotation
							End Site
							{
								OFFSET 0 0 0
							}
						}
					}
					JOINT Model7
					{
						OFFSET 10.8223 0.417534 3.51114
						CHANNELS 3 Zrotation Xrotation Yrotation
						JOINT Model8
						{
							OFFSET -6.07943 0 0
							CHANNELS 3 Zrotation Xrotation Yrotation
							JOINT Model9
							{
								OFFSET -0.277416 10.39 -0.0512447
								CHANNELS 3 Zrotation Xrotation Yrotation
								JOINT Model10
								{
									OFFSET -3.4391 -0.282043 1.86678
									CHANNELS 3 Zrotation Xrotation Yrotation
									JOINT Model11
									{
										OFFSET 13.0269 0 0
										CHANNELS 3 Zrotation Xrotation Yrotation
										JOINT Model12
										{
											OFFSET 10.8866 0 0
											CHANNELS 3 Zrotation Xrotation Yrotation
											JOINT Model13
											{
												OFFSET 16.7317 0 0
												CHANNELS 3 Zrotation Xrotation Yrotation
												JOINT Model14
												{
													OFFSET 11.8292 0 0
													CHANNELS 3 Zrotation Xrotation Yrotation
													JOINT Model15
													{
														OFFSET 4.82751 -3.73566 -0.836517
														CHANNELS 3 Zrotation Xrotation Yrotation
														JOINT Model16
														{
															OFFSET 3.75311 -0.0582886 -0.0186462
															CHANNELS 3 Zrotation Xrotation Yrotation
															JOINT Model17
															{
																OFFSET 2.88688 0.0192337 0.0148029
																CHANNELS 3 Zrotation Xrotation Yrotation
																End Site
																{
																	OFFSET 0 0 0
																}
															}
														}
													}
													JOINT Model18
													{
														OFFSET 9.72197 -3.06458 0.238768
														CHANNELS 3 Zrotation Xrotation Yrotation
														JOINT Model19
														{
															OFFSET 4.61131 0 0
															CHANNELS 3 Zrotation Xrotation Yrotation
															JOINT Model20
															{
																OFFSET 2.8969 -7.62939e-006 0
																CHANNELS 3 Zrotation Xrotation Yrotation
																End Site
																{
																	OFFSET 0 0 0
																}
															}
														}
													}
													JOINT Model21
													{
														OFFSET 9.54431 -0.745064 0.588938
														CHANNELS 3 Zrotation Xrotation Yrotation
														JOINT Model22
														{
															OFFSET 5.33978 0 0
															CHANNELS 3 Zrotation Xrotation Yrotation
															JOINT Model23
															{
																OFFSET 3.03619 7.62939e-006 0
																CHANNELS 3 Zrotation Xrotation Yrotation
																End Site
																{
																	OFFSET 0 0 0
																}
															}
														}
													}
													JOINT Model24
													{
														OFFSET 9.47759 1.51286 0.485121
														CHANNELS 3 Zrotation Xrotation Yrotation
														JOINT Model25
														{
															OFFSET 4.96136 7.62939e-006 0
															CHANNELS 3 Zrotation Xrotation Yrotation
															JOINT Model26
															{
																OFFSET 2.51966 0 0
																CHANNELS 3 Zrotation Xrotation Yrotation
																End Site
																{
																	OFFSET 0 0 0
																}
															}
														}
													}
													JOINT Model27
													{
														OFFSET 9.34247 3.34117 -0.239281
														CHANNELS 3 Zrotation Xrotation Yrotation
														JOINT Model28
														{
															OFFSET 3.2826 2.28882e-005 0
															CHANNELS 3 Zrotation Xrotation Yrotation
															JOINT Model29
															{
																OFFSET 2.1292 0 0
																CHANNELS 3 Zrotation Xrotation Yrotation
																End Site
																{
																	OFFSET 0 0 0
																}
															}
														}
													}
												}
											}
										}
									}
								}
							}
						}
					}
					JOINT Model30
					{
						OFFSET 10.8223 0.4179 -3.51107
						CHANNELS 3 Zrotation Xrotation Yrotation
						JOINT Model31
						{
							OFFSET 6.07943 0 0
							CHANNELS 3 Zrotation Xrotation Yrotation
							JOINT Model32
							{
								OFFSET 0.277416 -10.39 0.0512447
								CHANNELS 3 Zrotation Xrotation Yrotation
								JOINT Model33
								{
									OFFSET 3.4391 0.282043 -1.86678
									CHANNELS 3 Zrotation Xrotation Yrotation
									JOINT Model34
									{
										OFFSET -13.0269 0 0
										CHANNELS 3 Zrotation Xrotation Yrotation
										JOINT Model35
										{
											OFFSET -10.8866 0 0
											CHANNELS 3 Zrotation Xrotation Yrotation
											JOINT Model36
											{
												OFFSET -16.7317 0 0
												CHANNELS 3 Zrotation Xrotation Yrotation
												JOINT Model37
												{
													OFFSET -11.8292 0 0
													CHANNELS 3 Zrotation Xrotation Yrotation
													JOINT Model38
													{
														OFFSET -4.82751 3.73566 0.836516
														CHANNELS 3 Zrotation Xrotation Yrotation
														JOINT Model39
														{
															OFFSET -3.75311 0.0582886 0.0186434
															CHANNELS 3 Zrotation Xrotation Yrotation
															JOINT Model40
															{
																OFFSET -2.88688 -0.0192337 -0.014802
																CHANNELS 3 Zrotation Xrotation Yrotation
																End Site
																{
																	OFFSET 0 0 0
																}
															}
														}
													}
													JOINT Model41
													{
														OFFSET -9.72197 3.06459 -0.23877
														CHANNELS 3 Zrotation Xrotation Yrotation
														JOINT Model42
														{
															OFFSET -4.6113 0 0
															CHANNELS 3 Zrotation Xrotation Yrotation
															JOINT Model43
															{
																OFFSET -2.8969 0 0
																CHANNELS 3 Zrotation Xrotation Yrotation
																End Site
																{
																	OFFSET 0 0 0
																}
															}
														}
													}
													JOINT Model44
													{
														OFFSET -9.5443 0.745064 -0.588939
														CHANNELS 3 Zrotation Xrotation Yrotation
														JOINT Model45
														{
															OFFSET -5.33978 0 0
															CHANNELS 3 Zrotation Xrotation Yrotation
															JOINT Model46
															{
																OFFSET -3.03619 -1.52588e-005 0
																CHANNELS 3 Zrotation Xrotation Yrotation
																End Site
																{
																	OFFSET 0 0 0
																}
															}
														}
													}
													JOINT Model47
													{
														OFFSET -9.47759 -1.51286 -0.485122
														CHANNELS 3 Zrotation Xrotation Yrotation
														JOINT Model48
														{
															OFFSET -4.96136 -1.52588e-005 0
															CHANNELS 3 Zrotation Xrotation Yrotation
															JOINT Model49
															{
																OFFSET -2.51966 0 0
																CHANNELS 3 Zrotation Xrotation Yrotation
																End Site
																{
																	OFFSET 0 0 0
																}
															}
														}
													}
													JOINT Model50
													{
														OFFSET -9.34246 -3.34118 0.239278
														CHANNELS 3 Zrotation Xrotation Yrotation
														JOINT Model51
														{
															OFFSET -3.2826 -2.28882e-005 0
															CHANNELS 3 Zrotation Xrotation Yrotation
															JOINT Model52
															{
																OFFSET -2.1292 0 0
																CHANNELS 3 Zrotation Xrotation Yrotation
																End Site
																{
																	OFFSET 0 0 0
																}
															}
														}
													}
												}
											}
										}
									}
								}
							}
						}
					}
				}
			}
		}
	}
	JOINT Model53
	{
		OFFSET 4.38026 -2.14632 -1.11516
		CHANNELS 3 Zrotation Xrotation Yrotation
		JOINT Model54
		{
			OFFSET 0 0 4.94999
			CHANNELS 3 Zrotation Xrotation Yrotation
			JOINT Model55
			{
				OFFSET 18.5642 0 0
				CHANNELS 3 Zrotation Xrotation Yrotation
				JOINT Model56
				{
					OFFSET 21.2884 0 1.14441e-005
					CHANNELS 3 Zrotation Xrotation Yrotation
					JOINT Model57
					{
						OFFSET 30.261 0 0
						CHANNELS 3 Zrotation Xrotation Yrotation
						JOINT Model58
						{
							OFFSET 11.7259 0 0
							CHANNELS 3 Zrotation Xrotation Yrotation
							JOINT Model59
							{
								OFFSET 10.682 0 0
								CHANNELS 3 Zrotation Xrotation Yrotation
								End Site
								{
									OFFSET 0 0 0
								}
							}
						}
					}
				}
			}
		}
	}
	JOINT Model60
	{
		OFFSET -4.38026 -2.14632 -1.11516
		CHANNELS 3 Zrotation Xrotation Yrotation
		JOINT Model61
		{
			OFFSET 0 0 -4.94999
			CHANNELS 3 Zrotation Xrotation Yrotation
			JOINT Model62
			{
				OFFSET -18.5642 0 0
				CHANNELS 3 Zrotation Xrotation Yrotation
				JOINT Model63
				{
					OFFSET -21.2884 0 -1.19209e-005
					CHANNELS 3 Zrotation Xrotation Yrotation
					JOINT Model64
					{
						OFFSET -30.261 0 0
						CHANNELS 3 Zrotation Xrotation Yrotation
						JOINT Model65
						{
							OFFSET -11.7259 0 0
							CHANNELS 3 Zrotation Xrotation Yrotation
							JOINT Model66
							{
								OFFSET -10.682 0 0
								CHANNELS 3 Zrotation Xrotation Yrotation
								End Site
								{
									OFFSET 0 0 0
								}
							}
						}
					}
				}
			}
		}
	}
}
MOTION
Frames: 5
Frame Time: 0.033333
4.20419 173.029 13.1936 171.114 -69.3446 170.183 -180 4.29621e-031 -90 2.57317 -0.525781 -0.544208 5.14156 -1.07588 -1.06433 5.14156 -1.07544 -1.06437 32.9493 1.55377 10.3423 -18.3273 1.44482 -2.50393 120.092 75.5343 58.4939 21.8386 12.1419 -1.87914 -167.277 84.4999 48.8109 -168.903 -12.3435 -21.2361 1.59054e-006 19.7775 3.25507e-005 -0.315969 4.98766 4.13159 7.21228e-007 7.5629 7.896e-007 -13.2301 0.862992 -7.43116 -72.0648 39.0385 39.3397 33.3638 2.10362 14.835 0.588947 0.308273 6.35287 -99.6409 81.413 100.35 -0.0181409 2.77977e-005 -0.117315 -0.124139 0.00241115 -0.799296 -79.8382 79.5773 80.5374 -0.000225757 -0.000220904 2.22053e-005 -0.000956201 0.00012292 -2.73059e-005 -66.7416 80.4058 67.2171 -0.000437112 1.59646e-005 -2.73107e-005 -0.000136577 -0.000109265 -5.4628e-005 -6.42159 81.2158 8.01779 -0.000218545 1.6922e-005 0.000212146 0.000901613 -0.000184783 -0.000218557 -59.9282 75.5373 58.5147 16.8781 20.8973 0.784859 -167.277 84.4999 48.8109 -154.796 -24.1912 -10.4686 7.25733e-006 -0.555857 2.90497e-005 -1.12409 20.7485 -0.421072 -1.41719e-005 31.1582 7.83569e-006 -18.5608 3.09807 -18.7936 -72.0648 39.0385 39.3397 33.3638 2.10361 14.835 0.588946 0.308273 6.35287 -99.6409 81.413 100.35 -0.0181409 3.00734e-005 -0.117315 -0.124139 0.00241112 -0.799296 -79.8382 79.5773 80.5374 -0.000260647 -0.000218571 2.35664e-005 -0.000956227 0.00012299 -2.73262e-005 -66.7416 80.4058 67.2171 -0.000437133 1.48765e-005 -2.73245e-005 -0.000136605 -0.00010929 -5.46466e-005 -6.42159 81.2158 8.01779 -0.000218567 1.95735e-005 0.000212294 0.000901582 -0.000191252 -0.000218569 0.000811311 0.56661 89.91 0.952626 -17.3408 -13.588 -5.34862e-006 -14.0709 -6.9103e-007 39.029 12.1465 -0.00539602 4.67754e-007 18.1463 4.96385e-007 -68.4176 12.848 -7.85536 -35.4947 2.20901e-006 7.34868e-008 -180 -0.566579 -90.09 2.22348 2.65764 1.32057 1.05607e-006 2.8553 -1.23267e-008 38.6435 -6.29268 -3.07488 1.27998e-007 -9.52617 -6.10871e-007 -73.4092 -3.77012 0.705427 -35.4947 4.19359e-007 -9.11899e-008 
4.21159 173.025 13.1899 171.29 -69.3658 170.369 -180 4.29621e-031 -90 2.57676 -0.518499 -0.548163 5.14876 -1.06153 -1.07253 5.14876 -1.0611 -1.07257 32.9642 1.54839 10.3063 -18.3108 1.44059 -2.50596 120.092 75.5343 58.4939 21.8578 11.8965 -1.91192 -167.277 84.4999 48.8109 -169.093 -12.1924 -21.2083 1.51701e-006 19.8992 3.25756e-005 -0.30851 4.91586 4.10138 7.22733e-007 7.45467 7.89404e-007 -13.2649 0.866141 -7.43852 -72.0648 39.0385 39.3397 33.3638 2.10362 14.835 0.588947 0.308273 6.35287 -99.6409 81.413 100.35 -0.0181409 2.77977e-005 -0.117315 -0.124139 0.00241115 -0.799296 -79.8382 79.5773 80.5374 -0.000225757 -0.000220904 2.22053e-005 -0.000956201 0.00012292 -2.73059e-005 -66.7416 80.4058 67.2171 -0.000437112 1.59646e-005 -2.73107e-005 -0.000136577 -0.000109265 -5.4628e-005 -6.42159 81.2158 8.01779 -0.000218545 1.6922e-005 0.000212146 0.000901613 -0.000184783 -0.000218557 -59.9282 75.5373 58.5147 16.963 21.0795 0.784128 -167.277 84.4999 48.8109 -154.659 -24.1449 -10.3307 7.2571e-006 -0.555399 2.90497e-005 -1.13119 20.5745 -0.414726 -1.41303e-005 30.8971 7.81424e-006 -18.6619 3.08586 -18.6198 -72.0648 39.0385 39.3397 33.3638 2.10361 14.835 0.588946 0.308273 6.35287 -99.6409 81.413 100.35 -0.0181409 3.00734e-005 -0.117315 -0.124139 0.00241112 -0.799296 -79.8382 79.5773 80.5374 -0.000260647 -0.000218571 2.35664e-005 -0.000956227 0.00012299 -2.73262e-005 -66.7416 80.4058 67.2171 -0.000437133 1.48765e-005 -2.73245e-005 -0.000136605 -0.00010929 -5.46466e-005 -6.42159 81.2158 8.01779 -0.000218567 1.95735e-005 0.000212294 0.000901582 -0.000191252 -0.000218569 0.000811311 0.56661 89.91 0.911194 -17.3288 -13.6035 -5.34834e-006 -14.0484 -6.90962e-007 39.1263 12.1139 -0.00539206 4.682e-007 18.0972 4.96246e-007 -68.4343 12.64 -7.74045 -35.4947 2.19623e-006 7.41383e-008 -180 -0.566579 -90.09 2.19986 2.66576 1.30115 1.05607e-006 2.88583 -1.2327e-008 38.645 -6.29243 -3.02307 1.28007e-007 -9.52532 -6.1087e-007 -73.3554 -3.65413 0.653702 -35.4947 4.12654e-007 -9.04778e-008 
4.22011 173.023 13.1871 171.462 -69.3844 170.549 -180 4.29621e-031 -90 2.58231 -0.510173 -0.553763 5.15987 -1.04519 -1.08404 5.15987 -1.04476 -1.08408 33.0111 1.54367 10.2596 -18.3359 1.43612 -2.50896 120.092 75.5343 58.4939 21.8886 11.6176 -1.95145 -167.277 84.4999 48.8109 -169.329 -12.0422 -21.1754 1.45841e-006 19.9961 3.25956e-005 -0.299925 4.83709 4.06116 7.24382e-007 7.3359 7.89191e-007 -13.3013 0.862034 -7.38296 -72.0648 39.0385 39.3397 33.3638 2.10362 14.835 0.588947 0.308273 6.35287 -99.6409 81.413 100.35 -0.0181409 2.77977e-005 -0.117315 -0.124139 0.00241115 -0.799296 -79.8382 79.5773 80.5374 -0.000225757 -0.000220904 2.22053e-005 -0.000956201 0.00012292 -2.73059e-005 -66.7416 80.4058 67.2171 -0.000437112 1.59646e-005 -2.73107e-005 -0.000136577 -0.000109265 -5.4628e-005 -6.42159 81.2158 8.01779 -0.000218545 1.6922e-005 0.000212146 0.000901613 -0.000184783 -0.000218557 -59.9282 75.5373 58.5147 17.0628 21.2553 0.777192 -167.277 84.4999 48.8109 -154.553 -24.0772 -10.1664 7.25649e-006 -0.554194 2.90497e-005 -1.14079 20.339 -0.406206 -1.40743e-005 30.5437 7.78564e-006 -18.8119 3.07306 -18.3958 -72.0648 39.0385 39.3397 33.3638 2.10361 14.835 0.588946 0.308273 6.35287 -99.6409 81.413 100.35 -0.0181409 3.00734e-005 -0.117315 -0.124139 0.00241112 -0.799296 -79.8382 79.5773 80.5374 -0.000260647 -0.000218571 2.35664e-005 -0.000956227 0.00012299 -2.73262e-005 -66.7416 80.4058 67.2171 -0.000437133 1.48765e-005 -2.73245e-005 -0.000136605 -0.00010929 -5.46466e-005 -6.42159 81.2158 8.01779 -0.000218567 1.95735e-005 0.000212294 0.000901582 -0.000191252 -0.000218569 0.000811311 0.56661 89.91 0.898714 -17.3388 -13.6132 -5.34846e-006 -14.0582 -6.90991e-007 39.1678 12.0962 -0.00538859 4.68444e-007 18.0705 4.9617e-007 -68.4582 12.5386 -7.68277 -35.4947 2.17902e-006 7.49661e-008 -180 -0.566579 -90.09 2.16855 2.65766 1.2746 1.05608e-006 2.8987 -1.23271e-008 38.669 -6.26528 -2.98846 1.28451e-007 -9.48428 -6.10796e-007 -73.3873 -3.62999 0.639805 -35.4947 4.02704e-007 -8.95988e-008 
4.22277 173.024 13.187 171.505 -69.3891 170.593 -180 4.29621e-031 -90 2.58748 -0.504804 -0.559029 5.17022 -1.03475 -1.09476 5.17022 -1.03431 -1.0948 33.107 1.54466 10.2261 -18.4423 1.4361 -2.5207 120.092 75.5343 58.4939 21.9184 11.4676 -1.97603 -167.277 84.4999 48.8109 -169.468 -11.949 -21.1343 1.42763e-006 20.0469 3.26062e-005 -0.292 4.81587 3.97406 7.24835e-007 7.3033 7.89134e-007 -13.3867 0.852688 -7.25643 -72.0648 39.0385 39.3397 33.3638 2.10362 14.835 0.588947 0.308273 6.35287 -99.6409 81.413 100.35 -0.0181409 2.77977e-005 -0.117315 -0.124139 0.00241115 -0.799296 -79.8382 79.5773 80.5374 -0.000225757 -0.000220904 2.22053e-005 -0.000956201 0.00012292 -2.73059e-005 -66.7416 80.4058 67.2171 -0.000437112 1.59646e-005 -2.73107e-005 -0.000136577 -0.000109265 -5.4628e-005 -6.42159 81.2158 8.01779 -0.000218545 1.6922e-005 0.000212146 0.000901613 -0.000184783 -0.000218557 -59.9282 75.5373 58.5147 17.1097 21.3039 0.768597 -167.277 84.4999 48.8109 -154.562 -24.0307 -10.0854 7.25583e-006 -0.552884 2.90497e-005 -1.14744 20.1752 -0.40034 -1.40356e-005 30.2979 7.76606e-006 -18.859 3.05643 -18.2518 -72.0648 39.0385 39.3397 33.3638 2.10361 14.835 0.588946 0.308273 6.35287 -99.6409 81.413 100.35 -0.0181409 3.00734e-005 -0.117315 -0.124139 0.00241112 -0.799296 -79.8382 79.5773 80.5374 -0.000260647 -0.000218571 2.35664e-005 -0.000956227 0.00012299 -2.73262e-005 -66.7416 80.4058 67.2171 -0.000437133 1.48765e-005 -2.73245e-005 -0.000136605 -0.00010929 -5.46466e-005 -6.42159 81.2158 8.01779 -0.000218567 1.95735e-005 0.000212294 0.000901582 -0.000191252 -0.000218569 0.000811311 0.56661 89.91 0.907235 -17.3436 -13.6069 -5.3486e-006 -14.0692 -6.91025e-007 39.1462 12.0883 -0.00538549 4.68551e-007 18.0587 4.96137e-007 -68.4665 12.5505 -7.68835 -35.4947 2.15741e-006 7.59687e-008 -180 -0.566579 -90.09 2.15598 2.63818 1.25814 1.05607e-006 2.8848 -1.2327e-008 38.6813 -6.22934 -2.98827 1.29034e-007 -9.43031 -6.10701e-007 -73.4521 -3.66188 0.65045 -35.4947 3.89525e-007 -8.85535e-008 
4.21705 173.023 13.1883 171.432 -69.3879 170.514 -180 4.29621e-031 -90 2.59022 -0.501901 -0.563162 5.17568 -1.02915 -1.10313 5.17568 -1.02872 -1.10317 33.2536 1.54972 10.2191 -18.6145 1.44134 -2.55784 120.092 75.5343 58.4939 21.9375 11.4687 -1.9808 -167.277 84.4999 48.8109 -169.502 -11.9389 -21.1294 1.42962e-006 20.0436 3.26055e-005 -0.289553 4.83715 3.92112 7.24397e-007 7.33489 7.89189e-007 -13.4459 0.837773 -7.09803 -72.0648 39.0385 39.3397 33.3638 2.10362 14.835 0.588947 0.308273 6.35287 -99.6409 81.413 100.35 -0.0181409 2.77977e-005 -0.117315 -0.124139 0.00241115 -0.799296 -79.8382 79.5773 80.5374 -0.000225757 -0.000220904 2.22053e-005 -0.000956201 0.00012292 -2.73059e-005 -66.7416 80.4058 67.2171 -0.000437112 1.59646e-005 -2.73107e-005 -0.000136577 -0.000109265 -5.4628e-005 -6.42159 81.2158 8.01779 -0.000218545 1.6922e-005 0.000212146 0.000901613 -0.000184783 -0.000218557 -59.9282 75.5373 58.5147 17.07 21.2526 0.774318 -167.277 84.4999 48.8109 -154.622 -24.0617 -10.1648 7.25607e-006 -0.55337 2.90497e-005 -1.14368 20.2674 -0.40366 -1.40574e-005 30.4362 7.77705e-006 -18.7264 3.06498 -18.4326 -72.0648 39.0385 39.3397 33.3638 2.10361 14.835 0.588946 0.308273 6.35287 -99.6409 81.413 100.35 -0.0181409 3.00734e-005 -0.117315 -0.124139 0.00241112 -0.799296 -79.8382 79.5773 80.5374 -0.000260647 -0.000218571 2.35664e-005 -0.000956227 0.00012299 -2.73262e-005 -66.7416 80.4058 67.2171 -0.000437133 1.48765e-005 -2.73245e-005 -0.000136605 -0.00010929 -5.46466e-005 -6.42159 81.2158 8.01779 -0.000218567 1.95735e-005 0.000212294 0.000901582 -0.000191252 -0.000218569 0.000811311 0.56661 89.91 0.885739 -17.3215 -13.6045 -5.34826e-006 -14.0422 -6.90943e-007 39.154 12.0836 -0.00538264 4.68615e-007 18.0518 4.96117e-007 -68.4682 12.492 -7.65639 -35.4947 2.13145e-006 7.71448e-008 -180 -0.566579 -90.09 2.14868 2.6164 1.23686 1.05607e-006 2.87173 -1.23268e-008 38.6918 -6.2051 -2.96441 1.2943e-007 -9.39371 -6.10636e-007 -73.4698 -3.61707 0.627715 -35.4947 3.73132e-007 -8.73428e-008 
